<svg width="113" height="119" viewBox="0 0 113 119" fill="none" xmlns="http://www.w3.org/2000/svg">
<path fill-rule="evenodd" clip-rule="evenodd" d="M27.9918 110.76C36.5465 116.088 46.0018 118.752 56.3576 118.752C67.6139 118.752 77.7821 115.6 86.8622 109.296C95.1757 103.456 101.571 96.1063 106.047 87.2467C106.691 85.9721 105.94 84.4565 104.549 84.1333L92.9389 81.4351C91.9431 81.2037 90.9203 81.671 90.405 82.554C86.8371 88.668 82.2417 93.5299 76.6189 97.1396C70.6156 101.042 63.8618 102.993 56.3576 102.993C49.4538 102.918 43.1502 101.267 37.447 98.0401C31.8189 94.7382 27.1663 90.2732 23.4892 84.6451C20.3207 79.6942 18.1974 74.1627 17.1193 68.0505C16.8823 66.7072 17.9414 65.5094 19.3055 65.5094H110.031C111.239 65.5094 112.239 64.5605 112.266 63.3524C112.459 54.9372 111.345 47.0639 108.924 39.7325C106.373 31.778 102.546 24.8367 97.4431 18.9084C92.4153 12.98 86.3744 8.36496 79.3204 5.06311C72.3415 1.76127 64.6873 0.110352 56.3576 0.110352C48.6283 0.110352 41.3492 1.64871 34.5204 4.72542C27.6916 7.80214 21.6882 12.0795 16.5104 17.5576C11.4075 22.9606 7.39276 29.2641 4.46612 36.4682C1.53949 43.5971 0.0761719 51.289 0.0761719 59.5436C0.0761719 70.4246 2.59008 80.3677 7.61789 89.3727C12.7207 98.3027 19.512 105.432 27.9918 110.76ZM61.4964 31.6028C61.3623 30.8447 61.6411 30.0845 62.119 29.4809C63.2003 28.1152 63.846 26.3888 63.846 24.5115C63.846 20.0868 60.2591 16.4999 55.8344 16.4999C51.4098 16.4999 47.8229 20.0868 47.8229 24.5115C47.8229 26.4497 48.5111 28.2271 49.6565 29.6127C50.1603 30.2221 50.4576 31.0011 50.3199 31.7796L47.352 48.5572C47.1065 49.9449 48.1739 51.2177 49.5831 51.2177H62.2644C63.6737 51.2177 64.741 49.9449 64.4956 48.5572L61.4964 31.6028Z" fill="#DFE1E4"/>
</svg>
